<svg xmlns="http://www.w3.org/2000/svg" viewBox="0 0 48 48"><defs><style>.cls-1{fill:#424242}.cls-2{fill:#42a5f5}</style></defs><g id="Graph_Analytic" data-name="Graph Analytic"><path class="cls-1" d="M4.2 4C3.06 6.24 3.8 6 3 6a1 1 0 0 0-1 1v23H0V7a3 3 0 0 1 3-3zM48 7v23h-2V7a1 1 0 0 0-1-1H24.57a9.79 9.79 0 0 0-.79-2H45a3 3 0 0 1 3 3z"/><path class="cls-2" d="M0 32v5a3 3 0 0 0 3 3h14.72l-1.5 6H15a1 1 0 0 0 0 2h18a1 1 0 0 0 0-2h-1.22l-1.5-6H45a3 3 0 0 0 3-3v-5zm24 3a1 1 0 0 1 0 2 1 1 0 0 1 0-2zm-5.72 11 1.5-6h8.44l1.5 6zM19.61 2C12.78 8.8 13 8.42 13 9v8.94A9 9 0 1 1 19.61 2z"/><path class="cls-2" d="M15 17.94V9.41l6-6a9 9 0 0 1-6 14.53z"/><path class="cls-1" d="M40 12a3 3 0 0 0-2.52 4.61l-3.54 4.56a2.92 2.92 0 0 0-3.29 1L27 20.94a3 3 0 1 0-5.84.95l-3.5 2.61a3 3 0 1 0 1.19 1.61l3.49-2.61a3 3 0 0 0 4-.66L30 24.06a3 3 0 1 0 5.51-1.67l3.54-4.56A3 3 0 1 0 40 12zM16 28a1 1 0 0 1 0-2 1 1 0 0 1 0 2zm8-6a1 1 0 0 1 0-2 1 1 0 0 1 0 2zm9 3a1 1 0 0 1 0-2 1 1 0 0 1 0 2zm7-9a1 1 0 0 1 0-2 1 1 0 0 1 0 2z"/></g></svg>