<?xml version="1.0" standalone="no"?>
<!DOCTYPE svg PUBLIC "-//W3C//DTD SVG 20010904//EN"
 "http://www.w3.org/TR/2001/REC-SVG-20010904/DTD/svg10.dtd">
<svg version="1.0" xmlns="http://www.w3.org/2000/svg"
 width="370" height="500" viewBox="0 0 500.000000 500.000000"
 preserveAspectRatio="xMidYMid meet">

<g transform="translate(0.000000,500.000000) scale(0.100000,-0.100000)"
fill="#000000" stroke="none">
<path d="M3333 4459 c-44 -31 -56 -59 -27 -59 9 0 23 8 30 18 10 13 17 15 31
6 26 -16 22 -36 -10 -45 -16 -4 -34 -13 -41 -18 -17 -14 -46 -4 -46 15 0 20
-21 17 -48 -6 -26 -22 -26 -53 0 -58 10 -2 19 6 24 20 l7 23 10 -22 c9 -20 18
-23 67 -23 48 0 60 4 78 25 12 14 27 25 32 25 21 0 22 -31 3 -53 -26 -28 -37
-83 -19 -90 13 -5 68 68 88 116 4 9 12 17 18 17 5 0 10 6 10 14 0 7 10 17 23
20 22 6 22 6 2 22 -18 13 -20 13 -23 0 -2 -8 -16 -18 -32 -21 -23 -5 -38 1
-79 31 -71 53 -64 72 16 39 53 -22 54 -17 3 10 -58 31 -66 30 -117 -6z"/>
<path d="M2993 4369 c11 -7 23 -7 35 0 14 9 11 10 -18 10 -29 0 -32 -1 -17
-10z"/>
<path d="M3082 4349 c-32 -12 -18 -29 25 -29 30 0 34 -2 23 -15 -10 -12 -10
-18 1 -31 12 -14 14 -14 25 0 10 15 12 14 17 -4 3 -11 10 -20 16 -20 17 0 13
40 -4 46 -8 4 -15 16 -15 29 0 34 -39 44 -88 24z"/>
<path d="M2918 4333 c6 -2 18 -2 25 0 6 3 1 5 -13 5 -14 0 -19 -2 -12 -5z"/>
<path d="M3540 4325 c-6 -8 -9 -19 -5 -25 10 -16 45 7 39 25 -8 19 -18 19 -34
0z"/>
<path d="M2770 4310 c0 -5 6 -10 14 -10 8 0 18 5 21 10 3 6 -3 10 -14 10 -12
0 -21 -4 -21 -10z"/>
<path d="M2702 4269 c-35 -31 -39 -39 -19 -39 17 0 71 56 60 63 -4 3 -23 -8
-41 -24z"/>
<path d="M3002 4290 c6 -20 57 -35 71 -21 15 15 6 21 -38 28 -29 5 -37 3 -33
-7z"/>
<path d="M3227 4264 c-11 -14 -16 -32 -12 -44 7 -23 25 -27 25 -6 0 7 9 16 20
19 16 4 18 10 12 28 -12 32 -24 33 -45 3z"/>
<path d="M3598 4269 c-10 -5 -18 -16 -18 -23 0 -8 -7 -20 -16 -27 -14 -11 -18
-10 -30 6 -13 18 -15 18 -39 -5 -28 -26 -24 -45 7 -29 15 8 27 8 45 0 31 -14
53 0 53 34 0 18 7 25 31 30 23 5 28 9 18 16 -18 11 -30 11 -51 -2z"/>
<path d="M3757 4253 c-2 -5 2 -22 8 -40 7 -23 14 -29 24 -24 9 6 10 11 2 15
-6 4 -11 18 -11 32 0 22 -14 33 -23 17z"/>
<path d="M2626 4168 c-12 -28 -14 -44 -7 -51 7 -7 12 -6 15 4 2 8 9 29 15 46
15 48 -2 48 -23 1z"/>
<path d="M3708 4173 c7 -3 16 -2 19 1 4 3 -2 6 -13 5 -11 0 -14 -3 -6 -6z"/>
<path d="M3624 4158 c-4 -6 -23 -8 -46 -4 -30 5 -39 3 -35 -6 2 -7 -2 -21 -11
-30 -14 -16 -13 -18 1 -18 9 0 19 5 22 10 3 6 15 10 26 10 10 0 35 8 54 19 31
16 33 19 15 24 -11 3 -23 1 -26 -5z"/>
<path d="M3140 4143 c0 -10 4 -14 8 -8 4 6 11 13 16 18 5 4 2 7 -7 7 -10 0
-17 -8 -17 -17z"/>
<path d="M3480 4156 c0 -2 7 -6 15 -10 8 -3 15 -1 15 4 0 6 -7 10 -15 10 -8 0
-15 -2 -15 -4z"/>
<path d="M3790 4040 c0 -68 2 -121 5 -118 7 7 8 229 1 236 -4 3 -6 -50 -6
-118z"/>
<path d="M3232 4120 c0 -14 2 -19 5 -12 2 6 2 18 0 25 -3 6 -5 1 -5 -13z"/>
<path d="M2602 4065 c0 -16 2 -22 5 -12 2 9 2 23 0 30 -3 6 -5 -1 -5 -18z"/>
<path d="M3423 4075 c-17 -19 -16 -26 1 -19 15 6 30 34 18 34 -4 -1 -13 -7
-19 -15z"/>
<path d="M3227 4014 c-5 -28 0 -34 25 -34 23 0 23 15 -1 39 -19 19 -19 19 -24
-5z"/>
<path d="M3285 4021 c-3 -5 -1 -12 4 -15 12 -8 41 3 41 15 0 12 -37 12 -45 0z"/>
<path d="M3541 3994 c0 -11 3 -14 6 -6 3 7 2 16 -1 19 -3 4 -6 -2 -5 -13z"/>
<path d="M2590 3982 c-27 -9 -5 -22 38 -21 46 0 104 16 72 19 -40 4 -101 5
-110 2z"/>
<path d="M3071 3940 c0 -33 1 -34 10 -11 6 16 6 28 -1 35 -7 7 -10 -1 -9 -24z"/>
<path d="M3110 3952 c0 -14 11 -21 26 -15 21 8 17 23 -6 23 -11 0 -20 -4 -20
-8z"/>
<path d="M3180 3915 c0 -8 7 -15 15 -15 8 0 15 7 15 15 0 8 -7 15 -15 15 -8 0
-15 -7 -15 -15z"/>
<path d="M3258 3923 c7 -3 16 -2 19 1 4 3 -2 6 -13 5 -11 0 -14 -3 -6 -6z"/>
<path d="M3320 3891 c0 -5 6 -14 14 -20 10 -9 15 -8 19 3 3 8 3 17 0 20 -9 9
-33 7 -33 -3z"/>
<path d="M2535 3880 c-22 -4 -53 -12 -68 -19 -16 -6 -47 -11 -70 -11 -25 0
-58 -9 -82 -23 -22 -13 -65 -31 -95 -41 -77 -25 -123 -57 -217 -155 -123 -127
-167 -230 -192 -446 -5 -47 -4 -85 4 -116 13 -48 5 -79 -19 -79 -8 0 -24 -25
-36 -55 -19 -47 -22 -69 -18 -159 2 -65 8 -109 16 -119 8 -9 12 -24 10 -34 -1
-10 8 -32 20 -48 18 -23 31 -29 64 -30 l42 -1 -3 -165 c-2 -171 -18 -380 -29
-390 -11 -10 -111 -29 -150 -29 -20 0 -54 -6 -77 -14 -22 -8 -76 -24 -120 -35
-44 -12 -114 -33 -155 -47 -41 -13 -89 -24 -106 -24 -17 0 -37 -6 -43 -14 -16
-19 -17 -95 -2 -181 11 -68 24 -96 56 -129 28 -27 14 -57 -40 -90 -175 -104
-352 -188 -414 -197 -33 -5 -62 -16 -74 -28 l-20 -20 38 -48 c57 -70 208 -219
298 -292 184 -149 433 -292 639 -365 116 -42 318 -97 330 -90 4 3 8 13 8 23 0
27 21 40 73 47 50 7 46 12 77 -72 10 -26 18 -33 48 -37 20 -2 38 -3 40 -2 2 2
4 31 5 66 l2 64 98 0 99 0 29 -33 c19 -21 29 -44 30 -65 0 -36 5 -28 30 53 12
38 18 46 43 48 65 8 87 -13 102 -100 4 -28 11 -38 24 -38 33 0 50 12 50 34 0
12 6 30 13 39 18 25 83 6 91 -27 l6 -24 87 19 c372 82 721 249 981 469 70 59
73 64 67 94 -4 17 -6 60 -5 96 2 122 29 171 82 151 13 -5 36 -7 51 -4 27 5 27
5 27 -51 0 -31 4 -56 9 -56 11 0 61 58 61 70 0 5 -4 20 -10 35 -8 21 -7 27 7
32 9 4 21 -1 28 -10 11 -15 14 -14 37 11 29 30 142 202 137 206 -2 1 -26 11
-54 21 -27 10 -66 28 -85 41 -60 38 -105 47 -204 40 -121 -8 -195 -21 -231
-40 -16 -9 -37 -16 -46 -16 -9 0 -29 -10 -45 -22 -31 -25 -48 -26 -289 -17
-131 5 -173 16 -204 53 -10 12 -9 20 5 41 l17 26 -53 54 c-30 30 -51 57 -47
61 8 8 -30 110 -60 156 -12 21 -23 41 -23 46 0 20 -156 112 -192 112 -45 0
-62 26 -33 50 22 18 94 159 101 198 8 44 34 90 71 131 21 22 33 47 36 75 3 22
10 59 15 81 37 148 45 186 49 235 3 38 12 63 27 80 27 30 39 56 66 137 22 68
28 236 10 303 -5 19 -14 55 -20 80 -12 47 -13 50 -54 143 -14 32 -26 61 -26
65 -1 15 -47 61 -87 86 -45 27 -53 49 -33 87 7 13 7 19 0 19 -5 0 -10 -7 -10
-15 0 -20 -13 -19 -52 5 -18 11 -40 20 -49 20 -8 0 -33 16 -54 36 -46 42 -88
57 -205 74 -47 6 -92 13 -100 15 -8 1 -33 -1 -55 -5z m115 -596 c51 -18 72
-32 65 -45 -3 -4 3 -16 13 -26 26 -24 18 -84 -14 -117 -14 -13 -38 -51 -54
-85 -17 -35 -36 -61 -45 -61 -22 0 -18 -17 5 -23 61 -16 14 -84 -50 -72 -19 4
-65 8 -101 8 -48 2 -72 7 -86 20 -11 9 -31 17 -45 17 -14 0 -35 9 -48 20 -13
11 -30 20 -39 21 -9 1 -5 4 8 8 18 5 29 19 40 56 14 42 20 50 39 48 15 -2 23
4 26 20 3 12 7 34 10 48 6 30 -14 45 -33 26 -7 -7 -18 -7 -37 2 -21 9 -24 14
-14 26 7 8 20 15 30 15 10 0 24 7 31 16 14 17 72 56 119 81 34 18 125 16 180
-3z m-300 -589 c0 -8 -7 -15 -15 -15 -16 0 -20 12 -8 23 11 12 23 8 23 -8z
m-191 -81 c27 -45 27 -57 -1 -49 -48 15 -85 67 -55 78 26 11 36 6 56 -29z
m446 24 c3 -7 7 -49 10 -93 2 -44 6 -100 7 -124 3 -41 1 -45 -25 -52 -16 -4
-40 -4 -53 1 -13 6 -51 7 -84 3 -50 -5 -61 -3 -66 11 -7 19 23 47 42 39 17 -6
35 30 33 64 -2 27 33 107 52 119 5 3 9 14 9 25 0 15 7 19 35 19 20 0 38 -6 40
-12z m325 -38 c0 -5 -4 -10 -10 -10 -5 0 -10 5 -10 10 0 6 5 10 10 10 6 0 10
-4 10 -10z m-536 -10 l26 -9 -18 -35 c-9 -19 -27 -39 -39 -45 -25 -12 -49 -79
-33 -95 6 -6 10 -25 10 -44 0 -40 28 -92 50 -93 13 0 13 -1 0 -6 -8 -3 -19
-12 -23 -19 -5 -9 -26 -14 -56 -14 -44 0 -50 3 -59 28 -6 15 -12 50 -14 77 -3
49 -2 50 24 50 41 -1 43 23 3 59 -19 18 -35 36 -35 41 0 5 -7 17 -17 27 -20
22 -10 36 13 17 14 -11 19 -10 34 9 10 12 29 22 43 22 13 0 32 9 42 20 21 23
17 23 49 10z m77 -536 c10 -9 43 -14 90 -15 41 -1 65 -4 54 -6 -11 -3 -26 -10
-32 -15 -9 -7 -23 -6 -44 1 -18 6 -47 11 -64 11 -45 0 -113 29 -95 40 18 11
70 1 91 -16z m-278 -601 c-7 -2 -21 -2 -30 0 -10 3 -4 5 12 5 17 0 24 -2 18
-5z m1723 -148 c4 -8 3 -22 0 -31 -5 -13 -9 -14 -21 -4 -8 7 -15 21 -15 31 0
23 28 25 36 4z m12 -137 c14 -14 16 -54 2 -63 -13 -8 -43 42 -36 60 7 18 18
19 34 3z"/>
<path d="M2467 3033 c-12 -11 27 -32 61 -33 34 0 45 23 16 34 -21 8 -69 8 -77
-1z"/>
<path d="M3617 3865 c-8 -7 -26 -17 -41 -21 -24 -6 -34 -23 -20 -37 9 -8 94
46 94 60 0 17 -15 16 -33 -2z"/>
<path d="M3790 3854 c0 -14 3 -14 15 -4 8 7 15 14 15 16 0 2 -7 4 -15 4 -8 0
-15 -7 -15 -16z"/>
<path d="M3462 3829 c-13 -5 -21 -13 -17 -18 7 -12 34 -3 53 16 16 16 0 17
-36 2z"/>
<path d="M3792 3800 c0 -19 2 -27 5 -17 2 9 2 25 0 35 -3 9 -5 1 -5 -18z"/>
<path d="M3345 3782 c-22 -2 -46 -9 -53 -15 -8 -6 -24 -13 -35 -14 -12 -2 -29
-10 -37 -18 -13 -13 -12 -17 2 -32 16 -15 17 -14 24 10 6 27 27 36 39 17 5 -8
11 -7 21 1 12 10 18 8 29 -7 14 -18 14 -18 15 9 0 22 4 27 25 27 14 0 25 4 25
9 0 14 -11 17 -55 13z"/>
<path d="M3556 3775 c-3 -9 -2 -24 3 -33 9 -16 10 -16 16 0 4 9 2 24 -3 33 -8
16 -9 16 -16 0z"/>
<path d="M3422 3769 c2 -6 8 -10 13 -10 5 0 11 4 13 10 2 6 -4 11 -13 11 -9 0
-15 -5 -13 -11z"/>
<path d="M3947 3748 c-6 -27 -13 -38 -26 -38 -11 0 -21 -7 -24 -15 -9 -22 8
-26 25 -6 9 10 21 20 28 23 7 2 10 18 8 38 l-3 35 -8 -37z"/>
<path d="M3610 3736 c0 -31 6 -34 13 -6 3 11 1 23 -4 26 -5 3 -9 -6 -9 -20z"/>
<path d="M3465 3689 c-4 -6 -4 -13 -1 -16 8 -8 36 5 36 17 0 13 -27 13 -35 -1z"/>
<path d="M3837 3669 c-9 -6 -15 -14 -12 -19 7 -12 43 -1 49 16 6 16 -11 18
-37 3z"/>
<path d="M3409 3638 c-1 -13 -1 -30 0 -39 1 -9 -9 -21 -21 -27 -23 -11 -23
-11 5 -11 25 -1 33 9 27 34 -2 6 -2 22 -1 38 1 15 -1 27 -4 27 -3 0 -6 -10 -6
-22z"/>
<path d="M3688 3653 c7 -3 16 -2 19 1 4 3 -2 6 -13 5 -11 0 -14 -3 -6 -6z"/>
<path d="M3570 3630 c-37 -15 -42 -19 -26 -26 13 -5 23 -2 31 10 7 9 19 14 28
10 8 -3 18 -1 21 5 12 18 -9 19 -54 1z"/>
<path d="M3783 3643 c-18 -6 -16 -23 1 -23 17 0 30 16 19 23 -5 2 -14 2 -20 0z"/>
<path d="M3440 3590 c0 -5 9 -10 19 -10 11 0 23 5 26 10 4 6 -5 10 -19 10 -14
0 -26 -4 -26 -10z"/>
<path d="M3600 3591 c0 -5 -12 -11 -27 -13 -27 -3 -28 -5 -29 -63 -1 -39 0
-45 3 -17 4 38 8 44 45 62 23 11 50 20 59 20 10 0 21 5 24 10 4 6 -10 10 -34
10 -23 0 -41 -4 -41 -9z"/>
<path d="M3445 3541 c-3 -5 -18 -10 -33 -10 -41 -1 -71 -7 -78 -14 -4 -4 -14
-7 -21 -7 -17 0 -48 -29 -40 -37 4 -3 19 -1 34 5 15 5 63 20 106 33 42 13 77
27 77 31 0 11 -38 10 -45 -1z"/>
<path d="M3667 3421 c-20 -40 -37 -83 -37 -94 0 -12 12 3 30 38 17 32 30 64
30 71 0 7 5 14 11 16 6 2 9 13 7 23 -3 14 -14 -1 -41 -54z"/>
<path d="M3585 3253 c-4 -13 -11 -23 -16 -23 -5 0 -9 -12 -8 -27 l0 -28 12 25
c6 14 15 28 20 31 5 4 7 15 4 25 -4 17 -6 17 -12 -3z"/>
<path d="M3440 3215 c-7 -25 -10 -48 -6 -52 3 -3 6 3 6 15 0 13 6 22 15 22 8
0 15 5 15 10 0 7 6 7 19 1 30 -16 35 14 6 33 -36 23 -41 21 -55 -29z"/>
<path d="M430 3238 c0 -8 -14 -27 -31 -44 -17 -16 -37 -42 -45 -57 -21 -39
-61 -205 -79 -326 -23 -157 -31 -144 78 -135 130 9 130 10 122 97 -4 40 -11
162 -14 271 -4 146 -9 200 -18 204 -7 2 -13 -3 -13 -10z"/>
<path d="M3501 3125 c-13 -19 -33 -45 -45 -58 -50 -54 -96 -115 -96 -127 0 -7
-7 -21 -16 -31 -10 -12 -14 -25 -9 -36 6 -15 10 -13 21 15 8 17 18 32 23 32 8
0 111 144 111 155 0 3 13 20 29 38 17 17 28 35 25 39 -9 14 -19 8 -43 -27z"/>
<path d="M3397 3107 c-10 -26 -16 -53 -14 -60 4 -8 6 -8 6 2 1 8 8 22 17 32 9
10 14 30 12 46 -3 26 -4 25 -21 -20z"/>
<path d="M3334 3016 c-7 -28 2 -49 17 -41 12 8 12 65 -1 65 -5 0 -12 -11 -16
-24z"/>
<path d="M3275 2830 c-3 -5 3 -10 14 -10 12 0 21 5 21 10 0 6 -6 10 -14 10 -8
0 -18 -4 -21 -10z"/>
<path d="M620 1314 c0 -5 9 -20 20 -34 14 -18 20 -21 20 -9 0 9 -9 24 -20 34
-11 10 -20 14 -20 9z"/>
<path d="M4076 1135 c-8 -21 -6 -122 3 -153 l6 -23 29 29 c27 29 28 32 19 94
-7 53 -11 63 -29 66 -13 2 -24 -4 -28 -13z"/>
<path d="M2346 394 c-9 -24 13 -46 43 -42 20 2 26 9 26 28 0 21 -5 26 -31 28
-22 2 -33 -2 -38 -14z"/>
<path d="M2595 360 c-4 -6 -3 -16 3 -22 6 -6 12 -6 17 2 4 6 3 16 -3 22 -6 6
-12 6 -17 -2z"/>
</g>
</svg>
