<!-- icon666.com - MILLIONS vector ICONS FREE --><svg viewBox="0 0 32 32" xmlns="http://www.w3.org/2000/svg" xmlns:xlink="http://www.w3.org/1999/xlink"><linearGradient id="lg1"><stop offset="0" stop-color="#bbdefb"/><stop offset="1" stop-color="#64b5f6"/></linearGradient><linearGradient id="SVGID_1_" gradientUnits="userSpaceOnUse" x1="13" x2="19" xlink:href="#lg1" y1="22" y2="22"/><linearGradient id="lg2"><stop offset="0" stop-color="#42a5f5"/><stop offset="1" stop-color="#1e88e5"/></linearGradient><linearGradient id="SVGID_2_" gradientUnits="userSpaceOnUse" x1="12" x2="20" xlink:href="#lg2" y1="28.325" y2="28.325"/><linearGradient id="SVGID_3_" gradientUnits="userSpaceOnUse" x1="2" x2="8" xlink:href="#lg1" y1="17" y2="17"/><linearGradient id="SVGID_4_" gradientUnits="userSpaceOnUse" x1="1" x2="9" xlink:href="#lg2" y1="23.325" y2="23.325"/><linearGradient id="SVGID_5_" gradientUnits="userSpaceOnUse" x1="24" x2="30" xlink:href="#lg1" y1="17" y2="17"/><linearGradient id="SVGID_6_" gradientUnits="userSpaceOnUse" x1="23" x2="31" xlink:href="#lg2" y1="23.325" y2="23.325"/><linearGradient id="SVGID_7_" gradientUnits="userSpaceOnUse" x1="6" x2="26" xlink:href="#lg1" y1="9.5" y2="9.5"/><linearGradient id="SVGID_8_" gradientUnits="userSpaceOnUse" x1="15" x2="17" xlink:href="#lg2" y1="8" y2="8"/><linearGradient id="SVGID_9_" gradientUnits="userSpaceOnUse" x1="11" x2="13" xlink:href="#lg2" y1="8" y2="8"/><linearGradient id="SVGID_10_" gradientUnits="userSpaceOnUse" x1="19" x2="21" xlink:href="#lg2" y1="8" y2="8"/><g id="discussion"><g><circle cx="16" cy="22" fill="url(#SVGID_1_)" r="3"/><path d="m18.4604492 25.8583984c-.2768555-.2128906-.6459961-.2670898-.9707031-.1411133-.9580078.3701172-2.0214844.3701172-2.9794922 0-.3251953-.1259766-.6943359-.0717773-.9707031.1411133-.9785156.7548829-1.5395508 1.8999024-1.5395508 3.1416016v1c0 .5522461.4477539 1 1 1h6c.5522461 0 1-.4477539 1-1v-1c0-1.2416992-.5610352-2.3867187-1.5395508-3.1416016z" fill="url(#SVGID_2_)"/><circle cx="5" cy="17" fill="url(#SVGID_3_)" r="3"/><path d="m7.4604492 20.8583984c-.2768555-.2128906-.6459961-.2661133-.9707031-.1411133-.9580078.3701172-2.0214844.3701172-2.9794922 0-.3261719-.125-.6933594-.0717773-.9707031.1411133-.9785156.7548829-1.5395508 1.8999024-1.5395508 3.1416016v1c0 .5522461.4477539 1 1 1h6c.5522461 0 1-.4477539 1-1v-1c0-1.2416992-.5610352-2.3867187-1.5395508-3.1416016z" fill="url(#SVGID_4_)"/><circle cx="27" cy="17" fill="url(#SVGID_5_)" r="3"/><path d="m29.4604492 20.8583984c-.2773438-.2128906-.6464844-.2661133-.9707031-.1411133-.9580078.3701172-2.0214844.3701172-2.9794922 0-.3256836-.125-.6933594-.0717773-.9707031.1411133-.9785156.7548829-1.5395508 1.8999024-1.5395508 3.1416016v1c0 .5522461.4477539 1 1 1h6c.5522461 0 1-.4477539 1-1v-1c0-1.2416992-.5610352-2.3867187-1.5395508-3.1416016z" fill="url(#SVGID_6_)"/><path d="m16 15c5.6074219 0 10-3.074707 10-7s-4.3925781-7-10-7-10 3.074707-10 7c0 2.2412109 1.4824219 4.3046875 4 5.6157227v3.3842773c0 .3842773.2202148.7348633.5668945.9013672.1376953.0664062.2856446.0986328.4331055.0986328.2226563 0 .4438477-.074707.6245117-.2192383l3.5141602-2.8105469c.2832031.0185547.5703125.0297852.8613281.0297852z" fill="url(#SVGID_7_)"/><g><circle cx="16" cy="8" fill="url(#SVGID_8_)" r="1"/></g><g><circle cx="12" cy="8" fill="url(#SVGID_9_)" r="1"/></g><g><circle cx="20" cy="8" fill="url(#SVGID_10_)" r="1"/></g></g></g></svg>