<svg version="1.1" id="Layer_1" xmlns="http://www.w3.org/2000/svg" x="0" y="0" viewBox="0 0 512 512" style="enable-background:new 0 0 512 512" xml:space="preserve"><style>.st0{fill:#71cce0}.st1{fill:#dfdfdf}.st2{fill:#4a555f}</style><path class="st2" d="M368.514 276.542H125.407c-13.204 0-23.945 10.742-23.945 23.945v156.658c0 13.204 10.742 23.947 23.945 23.947h243.107c13.204 0 23.946-10.743 23.946-23.947V300.487c0-13.204-10.743-23.945-23.946-23.945zm17.55 180.603c0 9.678-7.873 17.551-17.551 17.551H125.407c-9.677 0-17.55-7.873-17.55-17.551V300.487c0-9.677 7.873-17.55 17.55-17.55h243.107c9.678 0 17.551 7.873 17.551 17.55v156.658z"/><path class="st1" d="M368.514 290.398H125.407c-5.563 0-10.088 4.526-10.088 10.089v156.657c0 5.563 4.525 10.089 10.088 10.089h243.107c5.563 0 10.089-4.526 10.089-10.089V300.487c0-5.563-4.527-10.089-10.089-10.089z"/><path class="st2" d="M101.462 474.696v12.142c0 13.874 11.287 25.162 25.161 25.162h240.675c13.875 0 25.162-11.288 25.162-25.162v-12.142H101.462zm284.602 12.142c0 10.348-8.418 18.767-18.767 18.767H126.623c-10.347 0-18.766-8.418-18.766-18.767v-5.746h278.207v5.746z"/><path class="st1" d="M115.449 488.553c.828 5.422 5.524 9.589 11.174 9.589h240.675c5.65 0 10.346-4.167 11.175-9.589H115.449z"/><circle cx="246.96" cy="384.643" r="28.99" style="fill:#f58e6f"/><path class="st2" d="M246.961 352.455c-17.748 0-32.189 14.439-32.189 32.188s14.44 32.188 32.189 32.188 32.188-14.439 32.188-32.188-14.44-32.188-32.188-32.188zm0 57.98c-14.223 0-25.793-11.57-25.793-25.792s11.57-25.792 25.793-25.792c14.222 0 25.792 11.571 25.792 25.792s-11.571 25.792-25.792 25.792z"/><path class="st2" d="m454.492 326.021-88.788-90.942c-12.143-12.254-28.986-19.282-46.211-19.282H174.439c-17.238 0-34.089 7.027-46.235 19.286l-89.749 90.898a55.292 55.292 0 0 0-11.944 18.03 55.63 55.63 0 0 0-4.183 21.211 55.802 55.802 0 0 0 24.264 46.043l61.267 42.045V300.497c0-9.686 7.871-17.567 17.545-17.567h243.101c9.686 0 17.566 7.881 17.566 17.567v158.111l62.246-47.306c13.821-10.495 22.072-27.124 22.072-44.482v-1.77c.001-14.666-5.645-28.528-15.897-39.029zm9.502 40.799c0 15.371-7.307 30.094-19.545 39.388l-51.981 39.506V300.497c0-13.213-10.749-23.963-23.962-23.963H125.405c-13.202 0-23.941 10.75-23.941 23.963v140.666L50.21 405.99a49.412 49.412 0 0 1-21.486-40.769 49.253 49.253 0 0 1 3.704-18.783 48.956 48.956 0 0 1 10.574-15.959l89.749-90.899c10.949-11.05 26.144-17.387 41.688-17.387h145.055c15.53 0 30.718 6.337 41.651 17.371l88.772 90.926c9.078 9.3 14.078 21.574 14.078 34.562v1.768z"/><path class="st1" d="m444.577 335.7-47.842-49.002a31.256 31.256 0 0 1 3.195 13.8v130.173l40.008-30.405c10.392-7.891 16.595-20.394 16.595-33.445v-1.77c0-11.029-4.246-21.453-11.956-29.351zM48.296 335.738a41.506 41.506 0 0 0-8.965 13.531 41.847 41.847 0 0 0-3.146 15.953 41.954 41.954 0 0 0 18.246 34.616l39.57 27.155V300.498a31.248 31.248 0 0 1 3.712-14.812l-49.417 50.052zM355.861 244.832c-9.558-9.647-22.814-15.178-36.367-15.178H174.439c-13.567 0-26.83 5.532-36.375 15.164l-27.796 28.153a31.21 31.21 0 0 1 15.137-3.897h243.101c5.217 0 10.14 1.277 14.475 3.536l-27.12-27.778z"/><path class="st2" d="M252.042 61.858c-44.207 0-80.171 35.964-80.171 80.171s35.964 80.171 80.171 80.171c44.207 0 80.171-35.964 80.171-80.171s-35.965-80.171-80.171-80.171zm0 153.947c-40.68 0-73.776-33.096-73.776-73.776s33.096-73.775 73.776-73.775 73.775 33.095 73.775 73.775-33.095 73.776-73.775 73.776z"/><path d="M252.042 75.715c-36.566 0-66.314 29.748-66.314 66.314s29.748 66.314 66.314 66.314c36.566 0 66.314-29.748 66.314-66.314s-29.748-66.314-66.314-66.314z" style="fill:#ffd452"/><path class="st2" d="M162.165 118.702c-8.879 0-16.103 7.223-16.103 16.102V148.5c0 8.878 7.223 16.102 16.103 16.102 8.878 0 16.102-7.223 16.102-16.102v-13.696c-.001-8.879-7.224-16.102-16.102-16.102zm9.706 29.797c0 5.352-4.354 9.706-9.706 9.706-5.353 0-9.707-4.354-9.707-9.706v-13.696c0-5.352 4.354-9.706 9.707-9.706 5.352 0 9.706 4.354 9.706 9.706v13.696zM341.919 118.702c-8.878 0-16.102 7.223-16.102 16.102V148.5c0 8.878 7.223 16.102 16.102 16.102s16.102-7.223 16.102-16.102v-13.696c0-8.879-7.224-16.102-16.102-16.102zm9.706 29.797c0 5.352-4.354 9.706-9.706 9.706s-9.706-4.354-9.706-9.706v-13.696c0-5.352 4.354-9.706 9.706-9.706s9.706 4.354 9.706 9.706v13.696z"/><path class="st2" d="M341.966 116.659c-3.752-17.164-12.889-33.3-25.731-45.435-17.462-16.501-39.669-24.999-64.141-24.618-24.601-.391-46.783 8.116-64.245 24.618-12.841 12.135-21.98 28.271-25.732 45.435l-.074 7.822h6.396v-6.79c3.525-15.796 11.969-30.635 23.803-41.818 16.223-15.333 36.893-23.248 59.852-22.871 22.834-.394 43.523 7.539 59.748 22.871 11.833 11.182 20.277 26.022 23.802 41.818v6.608h6.396v-6.957l-.074-.683zM338.721 161.403v5.864c0 9.615-7.823 17.438-17.438 17.438h-68.135v6.396h68.135c13.142 0 23.834-10.692 23.834-23.834v-5.864h-6.396z"/><path class="st2" d="M243.763 172.922V191.1h23.213v-18.178h-23.213zm16.817 11.783h-10.421v-5.387h10.421v5.387zM483.409 10.234h-76.486c-14.005 0-25.4 11.393-25.4 25.398v35.574c-8.348 9.901-18.753 22.652-18.86 22.783l-4.259 5.219h125.005c14.005 0 25.399-11.394 25.399-25.399V35.632c0-14.005-11.394-25.398-25.399-25.398zm19.003 63.576c0 10.478-8.524 19.003-19.003 19.003H371.896c4.001-4.871 10.117-12.281 15.268-18.373l.756-.894V35.632c0-10.479 8.526-19.003 19.004-19.003h76.486c10.478 0 19.003 8.524 19.003 19.003V73.81z"/><path class="st0" d="M483.409 24.091h-76.487c-6.364 0-11.541 5.178-11.541 11.542v40.644l-2.519 2.979a1158.75 1158.75 0 0 0-5.112 6.096h95.66c6.364 0 11.541-5.178 11.541-11.542V35.633c0-6.365-5.178-11.542-11.542-11.542z"/><path class="st2" d="M115.796 95.367c-6.701 0-12.152 5.45-12.152 12.151s5.452 12.152 12.152 12.152c6.701 0 12.151-5.451 12.151-12.152 0-6.7-5.451-12.151-12.151-12.151zm0 17.908a5.764 5.764 0 0 1-5.757-5.756 5.763 5.763 0 0 1 5.757-5.756 5.761 5.761 0 0 1 5.755 5.756 5.762 5.762 0 0 1-5.755 5.756zM100.619 64.311a49.688 49.688 0 0 0 2.156-14.52C102.775 22.336 80.439 0 52.984 0S3.192 22.336 3.192 49.792c0 27.455 22.336 49.791 49.792 49.791a49.643 49.643 0 0 0 24.303-6.337 18.593 18.593 0 0 0 11.968 4.383c10.258 0 18.602-8.344 18.602-18.602a18.634 18.634 0 0 0-7.238-14.716zm-11.364 26.92a12.217 12.217 0 0 1-9.112-4.11l-1.8-2.023-2.292 1.443a43.255 43.255 0 0 1-23.068 6.646c-23.929 0-43.396-19.467-43.396-43.395 0-23.929 19.467-43.396 43.396-43.396S96.38 25.863 96.38 49.792c0 5.056-.865 10.013-2.57 14.737l-.918 2.541 2.353 1.329a12.232 12.232 0 0 1 6.218 10.626c-.001 6.731-5.477 12.206-12.208 12.206z"/><path class="st0" d="m91.571 74.894-7.84-4.431 3.059-8.469a35.8 35.8 0 0 0 2.127-12.202c0-19.814-16.12-35.934-35.934-35.934-19.814 0-35.934 16.12-35.934 35.934 0 19.814 16.12 35.934 35.934 35.934a35.806 35.806 0 0 0 19.093-5.499l7.641-4.807 6 6.743c.534.601 1.704 1.607 3.537 1.607a4.75 4.75 0 0 0 4.745-4.744c.001-1.729-.907-3.273-2.428-4.132z"/><path class="st2" d="M32.056 46.594h7.77v6.396h-7.77zM48.743 46.594h7.769v6.396h-7.769zM65.428 46.594h7.77v6.396h-7.77zM423.916 51.524h7.77v6.396h-7.77zM440.603 51.524h7.77v6.396h-7.77zM457.288 51.524h7.77v6.396h-7.77z"/></svg>