<svg version="1.1" id="Layer_1" xmlns="http://www.w3.org/2000/svg" x="0" y="0" viewBox="0 0 64 64" style="enable-background:new 0 0 64 64" xml:space="preserve"><style>.st11,.st12{fill:#eee;stroke:#0277bd;stroke-linecap:round;stroke-linejoin:round;stroke-miterlimit:10}.st12{fill:none;stroke:#bdbdbd}</style><g id="Handshake"><path d="M53 58.2H11c-1.7 0-3-1.3-3-3v-36c0-1.7 1.3-3 3-3h42c1.7 0 3 1.3 3 3v36c0 1.7-1.3 3-3 3z" style="fill:#81d4fa;stroke:#0277bd;stroke-linecap:round;stroke-linejoin:round;stroke-miterlimit:10"/><path d="M53 56.2H11" style="fill:none;stroke:#29b6f6;stroke-linecap:round;stroke-linejoin:round;stroke-miterlimit:10"/><path d="m62.1 20.2-5.7 5.7c-.4.4-1 .4-1.4 0L42.3 13.2c-.4-.4-.4-1 0-1.4L48 6.1c.4-.4 1-.4 1.4 0l12.7 12.7c.3.4.3 1 0 1.4z" style="fill:#ec407a;stroke:#0277bd;stroke-linecap:round;stroke-linejoin:round;stroke-miterlimit:10"/><path style="fill:none;stroke:#f48fb1;stroke-linecap:round;stroke-linejoin:round;stroke-miterlimit:10" d="m48.6 8.2-4.2 4.2"/><path style="fill:none;stroke:#d81b60;stroke-linecap:round;stroke-linejoin:round;stroke-miterlimit:10" d="m59.9 19.5-4.2 4.3"/><path class="st12" d="M52.9 26.6 33.8 45.7"/><path d="m1.9 20.9 6.7 6.7c.4.4 1 .4 1.4 0l12.7-12.7c.4-.4.4-1 0-1.4L16 6.8c-.4-.4-1-.4-1.4 0L1.9 19.5c-.3.4-.3 1 0 1.4z" style="fill:#ffa726;stroke:#0277bd;stroke-linecap:round;stroke-linejoin:round;stroke-miterlimit:10"/><path style="fill:none;stroke:#ffcc80;stroke-linecap:round;stroke-linejoin:round;stroke-miterlimit:10" d="m15.4 8.9 5.3 5.3"/><path style="fill:none;stroke:#f57c00;stroke-linecap:round;stroke-linejoin:round;stroke-miterlimit:10" d="m4.1 20.2 5.3 5.3"/><path class="st11" d="M47.4 41.2c.8-1 .7-2.5-.3-3.4L31.6 22.3l5.7-5.7-1.6-1.6c-.6-.6-1.3-.9-2.1-.9H23.5L9.4 28.4l8.1 8.1 11.9 11.9c.9.9 2.4 1.1 3.4.3 1.2-1 1.2-2.7.2-3.7l2 2c.9.9 2.4 1.1 3.4.3 1.2-1 1.2-2.7.2-3.7l.6.6c.9.9 2.4 1.1 3.4.3 1.2-1 1.2-2.7.2-3.7l.7.7c1.2 1 2.9.9 3.9-.3zM43 40.7l-9.9-9.9M38.7 43.6l-9.2-9.2M34.5 46.4 26 37.9"/><path class="st12" d="m12.2 28.4 5.3 5.3"/><path class="st11" d="M17.9 39.7h0c-1-1-1-2.6 0-3.5l2.7-2.7c1-1 2.6-1 3.5 0h0c1 1 1 2.6 0 3.5l-2.7 2.7c-1 .9-2.6.9-3.5 0z"/><path class="st11" d="M20.7 43.9h0c-1-1-1-2.6 0-3.5L24 37c1-1 2.6-1 3.5 0h0c1 1 1 2.6 0 3.5l-3.4 3.4c-.9 1-2.4 1-3.4 0zM24.9 46.7h0c-1-1-1-2.6 0-3.5l2.7-2.7c1-1 2.6-1 3.5 0h0c1 1 1 2.6 0 3.5l-2.7 2.7c-.9 1-2.5 1-3.5 0zM29.2 49.6h0c-1-1-1-2.6 0-3.5l1.9-1.9c1-1 2.6-1 3.5 0h0c1 1 1 2.6 0 3.5l-1.9 1.9c-1 .9-2.6.9-3.5 0zM35.2 18.8h-6.5c-.8 0-1.6.3-2.1.9L24 22.2c-1 1-1 2.8 0 3.9h0c1.1 1.1 2.8 1.1 3.9 0l3.7-3.7 14.1 14.1 9.9-9.9-14.1-14.2-6.3 6.4z"/><path class="st12" d="m52.9 26.6-7.1 7.1"/><path style="fill:none;stroke:#fff;stroke-linecap:round;stroke-linejoin:round;stroke-miterlimit:10" d="M24.5 16.2h9.4"/></g></svg>