<svg xmlns="http://www.w3.org/2000/svg" viewBox="0 0 64 64"><defs><style>.cls-4{fill:#dfe1ea}.cls-9{fill:#fff}</style></defs><g id="_84-Development" data-name="84-Development"><path style="fill:#979faf" d="M19 59h26v3H19z"/><path style="fill:#adb2c7" d="m40 50 5 9H19l5-9h16z"/><path d="M63 4v38H1V4a2.006 2.006 0 0 1 2-2h58a2.006 2.006 0 0 1 2 2z" style="fill:#8dd5f6"/><path class="cls-4" d="M63 42v6a2.006 2.006 0 0 1-2 2H3a2.006 2.006 0 0 1-2-2v-6z"/><path d="M61 2H3a2.006 2.006 0 0 0-2 2v14.844A26.743 26.743 0 0 0 9.2 20c7.6 0 7.6-2 15.2-2s7.6 2 15.2 2 7.6-2 15.2-2a26.787 26.787 0 0 1 8.2 1.157V4a2.006 2.006 0 0 0-2-2z" style="fill:#aedff7"/><path d="M61 2H3a2.006 2.006 0 0 0-2 2v7.844A26.743 26.743 0 0 0 9.2 13c7.6 0 7.6-2 15.2-2s7.6 2 15.2 2 7.6-2 15.2-2a26.787 26.787 0 0 1 8.2 1.157V4a2.006 2.006 0 0 0-2-2z" style="fill:#f6fafd"/><path d="m24 50-1.832 3.3a25.289 25.289 0 0 0 6.432.7c6.6 0 7.475-1.507 12.57-1.9L40 50z" style="fill:#7e8596"/><rect x="7" y="9" width="22" height="23" rx="1.576" ry="1.576" style="fill:#0096cf"/><path class="cls-9" d="M6 15h20v14H6z"/><path style="fill:#ff636e" d="M6 7h20v8H6z"/><path class="cls-4" d="M9 18h14v8H9z"/><path class="cls-9" d="M9 10h2v2H9zM13 10h2v2h-2z"/><path d="M61 1H3a3 3 0 0 0-3 3v44a3 3 0 0 0 3 3h19.3l-4.175 7.515A.991.991 0 0 0 18 59v2h-2v2h32v-2h-2v-2a.991.991 0 0 0-.126-.485L41.7 51H61a3 3 0 0 0 3-3V4a3 3 0 0 0-3-3zM3 3h58a1 1 0 0 1 1 1v37H2V4a1 1 0 0 1 1-1zm17 58v-1h24v1zm23.3-3H20.7l3.889-7h14.823zM61 49H3a1 1 0 0 1-1-1v-5h60v5a1 1 0 0 1-1 1z"/><path d="M6 30h13v-2H7V16h18v1h2V7a1 1 0 0 0-1-1H6a1 1 0 0 0-1 1v22a1 1 0 0 0 1 1zM25 8v6H7V8z"/><path d="m13.293 18.293-3 3a1 1 0 0 0 0 1.414l3 3 1.414-1.414L12.414 22l2.293-2.293zM18.707 25.707l3-3a1 1 0 0 0 0-1.414l-3-3-1.414 1.414L19.586 22l-2.293 2.293zM30 15h11v2H30zM30 11h6v2h-6zM25 34h-1a2 2 0 0 1-2-2v-6h-2v6a4 4 0 0 0 4 4h1a4 4 0 0 0 4-4h-2a2 2 0 0 1-2 2zM24 20v2h1a2 2 0 0 1 2 2h2a4 4 0 0 0-4-4zM36 20h-1a4 4 0 0 0-4 4v8a4 4 0 0 0 4 4h1a4 4 0 0 0 4-4v-8a4 4 0 0 0-4-4zm2 12a2 2 0 0 1-2 2h-1a2 2 0 0 1-2-2v-8a2 2 0 0 1 2-2h1a2 2 0 0 1 2 2zM43 36h3a4 4 0 0 0 4-4v-8a4 4 0 0 0-4-4h-3a1 1 0 0 0-1 1v14a1 1 0 0 0 1 1zm1-14h2a2 2 0 0 1 2 2v8a2 2 0 0 1-2 2h-2zM53 36h6v-2h-5v-5h5v-2h-5v-5h5v-2h-6a1 1 0 0 0-1 1v14a1 1 0 0 0 1 1z"/></g></svg>